<?xml version="1.0" encoding="utf-8"?>
<!-- Generator: Adobe Illustrator 22.0.2, SVG Export Plug-In . SVG Version: 6.00 Build 0)  -->
<svg version="1.1" id="Layer_1" xmlns="http://www.w3.org/2000/svg" xmlns:xlink="http://www.w3.org/1999/xlink" x="0px" y="0px"
	 viewBox="0 0 479 379" style="enable-background:new 0 0 479 379;" xml:space="preserve">
<style type="text/css">
	.st0{fill:#F7F8F8;}
</style>
<g>
	<g>
		<path class="st0" d="M416.8,377.7c-16.1,0-24.2-6.5-31.6-12.4c-6.5-5.2-11.7-9.1-22.8-9.1c-11.1,0-16.1,4.1-22.8,9.1
			c-7.4,5.7-15.6,12.4-31.6,12.4c-16.1,0-24.2-6.5-31.6-12.4c-6.5-5.2-11.7-9.1-22.8-9.1s-16.1,4.1-22.8,9.1
			c-7.4,5.7-15.6,12.4-31.6,12.4c-16.1,0-24.2-6.5-31.6-12.4c-6.5-5.2-11.7-9.1-22.8-9.1s-16.1,4.1-22.6,9.1
			c-7.4,5.7-15.4,12.4-31.6,12.4c-16.1,0-24.2-6.5-31.6-12.4c-6.5-5.2-11.7-9.1-22.6-9.1c-3.9,0-7.2-3.2-7.2-7.2s3.2-7.2,7.2-7.2
			c16,0,24.2,6.5,31.6,12.4c6.5,5.2,11.7,9.1,22.6,9.1s16.1-4.1,22.6-9.1c7.4-5.7,15.4-12.4,31.6-12.4c16.1,0,24.2,6.5,31.6,12.4
			c6.5,5.2,11.7,9.1,22.8,9.1s16.1-4.1,22.8-9.1c7.4-5.7,15.6-12.4,31.6-12.4c16.1,0,24.2,6.5,31.6,12.4c6.5,5.2,11.7,9.1,22.8,9.1
			c11.1,0,16.1-4.1,22.8-9.1c7.4-5.7,15.6-12.4,31.6-12.4c16.1,0,24.2,6.5,31.6,12.4c6.5,5.2,11.7,9.1,22.8,9.1
			c11.1,0,16.1-4.1,22.8-9.1c7.4-5.7,15.6-12.4,31.6-12.4c3.9,0,7.2,3.2,7.2,7.2s-3.2,7.2-7.2,7.2c-11.1,0-16.1,4.1-22.8,9.1
			C441.2,371.2,433,377.7,416.8,377.7z"/>
	</g>
</g>
<rect x="229.1" y="129.3" class="st0" width="46.1" height="39.8"/>
<rect x="406.6" y="63.9" class="st0" width="46.1" height="39.8"/>
<rect x="309.4" y="3.6" class="st0" width="61.7" height="39.8"/>
<rect x="299.8" y="129.3" class="st0" width="81" height="39.8"/>
<g>
	<g>
		<path class="st0" d="M416.8,377.7c-16.1,0-24.2-6.5-31.6-12.4c-6.5-5.2-11.7-9.1-22.8-9.1c-11.1,0-16.1,4.1-22.8,9.1
			c-7.4,5.7-15.6,12.4-31.6,12.4c-16.1,0-24.2-6.5-31.6-12.4c-6.5-5.2-11.7-9.1-22.8-9.1s-16.1,4.1-22.8,9.1
			c-7.4,5.7-15.6,12.4-31.6,12.4c-16.1,0-24.2-6.5-31.6-12.4c-6.5-5.2-11.7-9.1-22.8-9.1s-16.1,4.1-22.6,9.1
			c-7.4,5.7-15.4,12.4-31.6,12.4c-16.1,0-24.2-6.5-31.6-12.4c-6.5-5.2-11.7-9.1-22.6-9.1c-3.9,0-7.2-3.2-7.2-7.2s3.2-7.2,7.2-7.2
			c16,0,24.2,6.5,31.6,12.4c6.5,5.2,11.7,9.1,22.6,9.1s16.1-4.1,22.6-9.1c7.4-5.7,15.4-12.4,31.6-12.4c16.1,0,24.2,6.5,31.6,12.4
			c6.5,5.2,11.7,9.1,22.8,9.1s16.1-4.1,22.8-9.1c7.4-5.7,15.6-12.4,31.6-12.4c16.1,0,24.2,6.5,31.6,12.4c6.5,5.2,11.7,9.1,22.8,9.1
			c11.1,0,16.1-4.1,22.8-9.1c7.4-5.7,15.6-12.4,31.6-12.4c16.1,0,24.2,6.5,31.6,12.4c6.5,5.2,11.7,9.1,22.8,9.1
			c11.1,0,16.1-4.1,22.8-9.1c7.4-5.7,15.6-12.4,31.6-12.4c3.9,0,7.2,3.2,7.2,7.2s-3.2,7.2-7.2,7.2c-11.1,0-16.1,4.1-22.8,9.1
			C441.2,371.2,433,377.7,416.8,377.7z"/>
	</g>
</g>
<rect x="229.1" y="129.3" class="st0" width="46.1" height="39.8"/>
<rect x="406.6" y="63.9" class="st0" width="46.1" height="39.8"/>
<rect x="309.4" y="3.6" class="st0" width="61.7" height="39.8"/>
<rect x="229.1" y="63.9" class="st0" width="46.1" height="39.8"/>
<path class="st0" d="M94.8,52.1V18.9H61.6v33.2H20.6v84.5h131.6l-24.4-84.5H94.8z M98.9,107.6H57.7V80.2h41.2V107.6z"/>
<rect x="299.8" y="129.3" class="st0" width="81" height="39.8"/>
<rect x="299.8" y="63.9" class="st0" width="81" height="39.8"/>
<rect x="406.6" y="129.3" class="st0" width="46.1" height="39.8"/>
<path class="st0" d="M209.4,191l-31-40.9H0.3l102.2,168.7h336.9L478.2,191H209.4z M78.3,208.2c-7.4,0-13.3-5.9-13.3-13.3
	s5.9-13.3,13.3-13.3c7.4,0,13.3,5.9,13.3,13.3S85.7,208.2,78.3,208.2z M152.2,208.2c-7.4,0-13.3-5.9-13.3-13.3s5.9-13.3,13.3-13.3
	s13.3,5.9,13.3,13.3C165.6,202.3,159.6,208.2,152.2,208.2z"/>
</svg>
