<?xml version="1.0" encoding="utf-8"?>
<!-- Generated by IcoMoon.io -->
<!DOCTYPE svg PUBLIC "-//W3C//DTD SVG 1.1//EN" "http://www.w3.org/Graphics/SVG/1.1/DTD/svg11.dtd">
<svg version="1.1" xmlns="http://www.w3.org/2000/svg" xmlns:xlink="http://www.w3.org/1999/xlink" width="512" height="512" viewBox="0 0 512 512">
<g>
	<path d="M188.805 273.582c10.742 3.881 20.624 9.861 28.57 17.623v-17.623h-28.57zM192.512 90.102h61.379c13.035 0 23.818 10.782 23.818 24.023v24.863c0 9.523-5.652 17.817-13.773 21.698h116.255v51.159l5.294-3.901 10.055-7.762 10.035 7.762 9.892 7.598-3.717 12.165-3.687 11.817h52.562v105.482l23.982-55.736 23.818 10.24-33.168 77.077-241.48 0.164c-12.165 26.665-39.311 45.159-71.066 45.159-43.038 0-77.978-34.222-77.978-76.36 0-27.678 15.186-52.039 37.765-65.444l-67.225-155.945h-51.681v-20.644h66.499l72.151 167.219v-110.060h40.213c-8.131-3.881-13.752-12.175-13.752-21.698v-24.862c-0.010-13.23 10.742-24.013 23.808-24.013v0zM389.079 239.524l-8.899-11.858v11.858h8.899zM438.651 340.265h12.779v-70.677h-12.779v70.677zM320.911 251.822v12.779h133.007v-12.78h-133.007zM185.805 193.403v14.684h150.272v-14.684h-150.272zM158.106 171.602v14.561h205.845v-14.561h-205.845zM162.693 298.445c-26.644 0-48.159 21.156-48.159 47.104 0 26.102 21.524 47.104 48.159 47.104 26.614 0 48.148-21.002 48.148-47.104 0-25.948-21.535-47.104-48.149-47.104z" fill="LimeGreen" />
</g>
</svg>
