<?xml version="1.0" encoding="utf-8"?>
<!-- Generator: Adobe Illustrator 16.0.0, SVG Export Plug-In . SVG Version: 6.00 Build 0)  -->
<!DOCTYPE svg PUBLIC "-//W3C//DTD SVG 1.1//EN" "http://www.w3.org/Graphics/SVG/1.1/DTD/svg11.dtd">
<svg version="1.1" id="Layer_1" xmlns="http://www.w3.org/2000/svg" xmlns:xlink="http://www.w3.org/1999/xlink" x="0px" y="0px"
	 width="512px" height="512px" viewBox="0 0 512 512" enable-background="new 0 0 512 512" xml:space="preserve">
<g fill="LimeGreen">
	<path d="M223.688,271.781v32c0,12.875,8.813,15.813,16,16h16v-64h-16C232.5,255.969,223.688,258.906,223.688,271.781z"/>
	<path d="M287.688,415.781h16.016c7.188-0.188,16-3.125,16-16v-32c0-12.875-8.813-15.813-16-16h-16.016V415.781z"/>
	<path d="M344.953,159.781h6.75c17.688,0,32-14.313,32-32c0-16.438-12.563-29.5-28.563-31.313l25.188-50.375
		c7.875-15.813,1.5-35-14.313-42.938c-15.813-7.875-35-1.5-42.938,14.313l-4.5,8.938c-2.625-15-15.125-26.625-30.891-26.625
		c-17.672,0-32,14.344-32,32c0-17.656-14.328-32-32-32c-15.766,0-28.266,11.625-30.906,26.625l-4.469-8.938
		c-7.922-15.781-27.078-22.25-42.938-14.313c-15.813,7.938-22.219,27.125-14.313,42.938l25.188,50.375
		c-15.984,1.813-28.563,14.875-28.563,31.313c0,17.688,14.313,32,32,32h6.734C87.156,217.594,31.688,340.125,31.688,417.938
		c0,104.656,100.281,93.5,224,93.5c123.703,0,224.016,11.156,224.016-93.5C479.703,340.125,424.203,217.594,344.953,159.781z
		 M303.703,319.781c19.313,0,48,12.781,48,48v32c0,35.219-28.688,48-48,48h-16.016v16c0,8.813-7.188,16-16,16s-16-7.188-16-16v-16
		h-48c-8.813,0-16-7.188-16-16s7.188-16,16-16h48v-64h-16c-19.313,0-48-12.781-48-48v-32c0-35.219,28.688-48,48-48h16v-16
		c0-8.813,7.188-16,16-16s16,7.188,16,16v16h48.016c8.813,0,16,7.188,16,16s-7.188,16-16,16h-48.016v64H303.703z"/>
</g>
</svg>
