<?xml version="1.0" encoding="utf-8"?>
<!-- Generator: Adobe Illustrator 22.0.2, SVG Export Plug-In . SVG Version: 6.00 Build 0)  -->
<svg version="1.1" id="Layer_1" xmlns="http://www.w3.org/2000/svg" xmlns:xlink="http://www.w3.org/1999/xlink" x="0px" y="0px"
	 viewBox="0 0 1000 1000" style="enable-background:new 0 0 1000 1000;" xml:space="preserve">
<style type="text/css">
	.st0{fill:#E6E6E6;}
	.st1{fill:#2F2E41;}
	.st2{fill:#FFB8B8;}
	.st3{fill:#575A89;}
	.st4{display:none;fill:#2F2E41;}
</style>
<path id="Path_944" class="st0" d="M1001.2,500.1c0,97-27.7,192.1-81.4,273.4c-11.1,17.5-23.1,33.3-37,49
	c-31.4,36.9-67.5,68.3-107.2,95.1c-11.1,7.4-22.2,13.9-33.3,20.3c-60.1,33.3-126.7,53.6-194.2,60c-15.7,1.8-31.4,1.8-47.2,1.8
	c-43.5,0-86.9-5.5-129.4-16.6c-24-6.5-47.2-14.8-70.3-24c-12-4.6-23.1-10.2-34.2-16.6c-26.8-13.9-51.8-30.5-75.8-49
	c-11.1-8.3-21.3-17.5-31.4-26.8C-42.7,679.2-54.7,362.4,133,160.2s504.8-215.2,707.3-26.8C942.9,227.6,1001.2,360.6,1001.2,500.1
	L1001.2,500.1z"/>
<path class="st1" d="M434.1,176.5c0,0-96.7-80.2-158.2,28.6s-42.9,600-42.9,600l256-153.8l224.2,57.1c0,0-7.7-411-70.3-501.1
	C642.9,207.3,556.1,51.2,434.1,176.5z"/>
<path id="Path_945" class="st2" d="M376.7,539.3c0,0,45.3,124.3,10.2,195.5s55.5,153.7,55.5,153.7s238.5-121,208-182
	c-30.5-61-81.4-141.3-71.2-192.1L376.7,539.3z"/>
<ellipse id="Ellipse_185" class="st2" cx="467.7" cy="431.7" rx="161.8" ry="161.6"/>
<path id="Path_946" class="st3" d="M370.6,983.1c-24-6.5-47.2-14.8-70.3-24l4.6-122.8l45.3-101.6c10.2,8.3,21.3,14.8,32.4,21.2
	c2.8,1.8,5.5,2.8,8.3,4.6c42.5,20.3,112.8,38.8,180.3-12c25-19.4,46.2-43.4,61.9-70.2l128.5,72l6.5,77.6l7.4,90.5
	c-11.1,7.4-22.2,13.9-33.3,20.3c-60.1,33.3-126.7,53.6-194.2,60c-15.7,1.8-31.4,1.8-47.2,1.8C456.6,1000.7,413.1,994.2,370.6,983.1z
	"/>
<path id="Path_947" class="st3" d="M402,658.9L402,658.9l-6.5,66.5l-3.7,35.1l-4.6,51.7l-16.6,170.9c-24-6.5-47.2-14.8-70.3-24
	c-12-4.6-23.1-10.2-34.2-16.6c-26.8-13.9-51.8-30.5-75.8-49l-17.6-83.1l0.9-0.9L402,658.9z"/>
<path id="Path_948" class="st3" d="M742.3,937.9c-60.1,33.3-126.7,53.6-194.2,60c3.7-61.9,9.2-121,14.8-173.6
	c2.8-26.8,6.5-52.6,10.2-75.7c11.1-73.9,23.1-124.7,31.4-131.2l56.4,36.9l227.4,80.4l-4.6,87.7c-31.4,36.9-67.5,68.3-107.2,95.1
	C764.5,924.9,753.4,932.3,742.3,937.9z"/>
<path id="Path_949" class="st3" d="M191.2,894.5c-11.1-8.3-21.3-17.5-31.4-26.8l8.3-56.3l6.5-0.9l28.7-3.7l62.9,136.7
	C240.2,928.6,215.3,912.9,191.2,894.5L191.2,894.5z"/>
<path id="Path_950" class="st3" d="M919.8,773.5c-11.1,17.5-23.1,33.3-37,49c-31.4,36.9-67.5,68.3-107.2,95.1
	c-11.1,7.4-22.2,13.9-33.3,20.3l-5.5-25.9l32.4-84.1l38.8-102.5l81.4,10.2C899.5,747.6,909.6,760.5,919.8,773.5z"/>
<path id="Path_951" class="st4" d="M622.1,284.8c-25-39.7-62.9-69.3-107.2-82.2l-33.3,26.8l12.9-30.5c-11.1-1.8-21.3-1.8-32.4-1.8
	L432.5,235l12-36.9c-51.8,6.5-98.9,34.2-129.4,76.7c-37.9,54.5-44.4,130.2-7.4,184.7c10.2-31.4,22.2-61,32.4-91.4
	c8.3,0.9,15.7,0.9,24,0l12-28.6l3.7,27.7c38.8-3.7,95.2-11.1,132.2-17.5l-3.7-21.2l21.3,17.5c11.1-2.8,17.6-4.6,17.6-6.5
	c26.8,43.4,53.6,71.1,81.4,115.5C638.7,392,656.3,341.2,622.1,284.8z"/>
<ellipse id="Ellipse_186" class="st2" cx="612.8" cy="426.2" rx="11.1" ry="22.2"/>
<path class="st1" d="M614.3,275.4"/>
<path class="st1" d="M635.2,317.2c0,0-16.7-64.1-1.7,0.4s-351,76.5-351,76.5s53.8-182.4,169.2-159.3S635.2,317.2,635.2,317.2z"/>
<path class="st1" d="M542.9,236.9L494.6,260L542.9,236.9z"/>
<path class="st1" d="M709.9,1042.3"/>
</svg>
