<?xml version="1.0" encoding="utf-8"?>
<!-- Generated by IcoMoon.io -->
<!DOCTYPE svg PUBLIC "-//W3C//DTD SVG 1.1//EN" "http://www.w3.org/Graphics/SVG/1.1/DTD/svg11.dtd">
<svg version="1.1" xmlns="http://www.w3.org/2000/svg" xmlns:xlink="http://www.w3.org/1999/xlink" width="512" height="512" viewBox="0 0 512 512">
<g>
	<path d="M6812.242 78235.535h346.993v164.342h18.77v164.096h-390.707v-164.096h24.955v-164.342h-0.010zM7075.614 78642.155h60.969v59.924h-60.969v-59.924zM6830.756 78642.155h60.703v59.924h-60.703v-59.924zM6789.1 78585.323h390.164l-15.155 37.284-355.717 1.065-19.292-38.349zM7242.291 78297.518h-39.598v37.817h-41.667v22.098h81.275v-59.914h-0.010zM6728.642 78297.518v59.914h82.565v-22.098h-42.435v-37.817h-40.131zM6837.975 78399.877h295.516v-150.723h-295.516v150.723zM6828.708 78495.038v43.735h62.515v-43.735h-62.515zM7080.51 78495.038v43.735h62.494v-43.735h-62.494zM6914.099 78437.161v18.8h143.268v-18.8h-143.268zM6914.345 78482.678v18.8h143.534v-18.8h-143.534zM6914.622 78528.235v18.483h143.524v-18.483h-143.524z" fill="LimeGreen" />
	<path d="M87.951 29.706h336.61v159.427h18.217v159.191h-379.024v-159.191h24.207v-159.427h-0.010zM343.44 424.171h59.156v58.122h-59.156v-58.122zM105.922 424.171h58.88v58.122h-58.88v-58.122zM65.505 369.029h378.491l-14.704 36.158-345.088 1.034-18.698-37.192zM505.139 89.826h-38.421v36.69h-40.407v21.442h78.827v-58.132zM6.851 89.826v58.132h80.097v-21.442h-41.165v-36.69h-38.932zM112.927 189.133h286.689v-146.217h-286.69v146.217zM103.936 281.447v42.435h60.651v-42.435h-60.651zM348.201 281.447v42.435h60.631v-42.435h-60.631zM186.768 225.29v18.238h138.977v-18.238h-138.977zM187.013 269.455v18.227h139.233v-18.227h-139.233zM187.28 313.651v17.93h139.234v-17.93h-139.233z" fill="LimeGreen" />
</g>
</svg>
