<?xml version="1.0" standalone="no"?>
<!DOCTYPE svg PUBLIC "-//W3C//DTD SVG 20010904//EN"
 "http://www.w3.org/TR/2001/REC-SVG-20010904/DTD/svg10.dtd">
<svg version="1.0" xmlns="http://www.w3.org/2000/svg"
 width="1000.000000pt" height="1000.000000pt" viewBox="0 0 1000.000000 1000.000000"
 preserveAspectRatio="xMidYMid meet">
<metadata>
Created by potrace 1.11, written by Peter Selinger 2001-2013
</metadata>
<g transform="translate(0.000000,1000.000000) scale(0.100000,-0.100000)"
fill="#000000" stroke="none">
<path d="M5463 8685 c-147 -40 -265 -152 -313 -296 -66 -194 2 -400 172 -524
35 -25 118 -62 163 -71 100 -22 235 0 325 52 63 37 93 63 135 119 73 98 96
172 91 300 -3 82 -7 102 -38 167 -60 124 -149 204 -271 246 -71 24 -191 27
-264 7z"/>
<path d="M3698 7565 c-2 -1 -46 -6 -98 -9 -221 -16 -378 -46 -585 -113 -478
-154 -795 -487 -906 -951 -46 -189 -58 -306 -54 -502 4 -198 5 -208 40 -375
177 -854 838 -1659 1880 -2293 112 -68 354 -204 456 -256 l76 -39 -8 -36 c-4
-20 -10 -52 -13 -71 -3 -19 -17 -93 -30 -165 -106 -550 -235 -793 -489 -918
-131 -64 -196 -80 -352 -83 -170 -3 -321 23 -502 86 -65 23 -126 44 -135 47
-16 5 -18 -3 -18 -63 -1 -98 -8 -257 -15 -341 -7 -78 -8 -77 61 -89 14 -3 54
-11 88 -19 33 -8 77 -17 96 -20 19 -3 60 -10 90 -15 243 -40 533 -46 730 -15
255 40 494 179 643 373 99 129 192 350 232 552 2 8 8 33 13 55 6 22 13 56 16
75 3 19 10 60 16 90 6 30 22 115 35 188 13 74 25 136 28 138 2 3 20 -2 38 -10
450 -194 1039 -394 1649 -558 124 -33 232 -61 240 -63 8 -2 65 -15 125 -30
173 -42 308 -73 465 -106 197 -42 231 -50 260 -55 36 -7 128 -24 180 -35 25
-5 61 -11 80 -14 19 -4 53 -10 75 -15 92 -22 61 -6 -75 37 -477 149 -1126 399
-1555 597 -38 18 -113 53 -165 77 -273 126 -666 334 -940 498 -80 47 -149 88
-155 91 -5 3 -41 25 -78 49 -48 30 -66 48 -63 60 2 9 8 41 12 71 4 30 8 57 9
60 1 3 5 30 9 60 5 30 10 62 11 71 3 16 6 34 26 159 12 79 17 109 29 180 5 30
11 69 13 85 3 17 7 46 11 65 3 19 7 49 10 65 2 17 9 57 14 90 6 33 14 78 17
100 3 22 8 54 10 70 3 17 7 44 10 60 2 17 7 41 9 55 3 14 8 42 11 63 11 77 17
117 45 287 16 96 32 191 34 210 3 19 15 89 26 155 21 120 25 146 35 208 3 17
7 43 10 57 3 14 7 40 10 58 10 66 73 441 81 482 2 14 7 41 10 60 3 19 14 87
25 150 11 63 22 133 25 155 l6 41 -264 -2 c-302 -1 -285 0 -285 -16 -1 -29
-47 -401 -58 -467 -2 -15 -7 -46 -10 -71 -3 -25 -10 -70 -15 -100 -5 -30 -12
-75 -15 -100 -6 -42 -57 -380 -70 -460 -3 -19 -7 -48 -9 -65 -7 -44 -15 -100
-31 -195 -8 -47 -17 -107 -20 -135 -4 -27 -8 -57 -10 -65 -2 -8 -7 -37 -11
-65 -3 -27 -8 -59 -10 -70 -2 -11 -13 -78 -24 -150 -11 -71 -23 -146 -27 -165
-3 -19 -7 -44 -8 -55 -1 -11 -5 -36 -8 -55 -4 -19 -9 -53 -12 -75 -3 -22 -10
-62 -15 -90 -5 -27 -12 -68 -15 -90 -3 -22 -8 -53 -11 -68 -3 -16 -7 -38 -9
-50 -3 -26 -13 -83 -26 -154 -10 -50 -11 -51 -29 -35 -10 9 -25 22 -32 27 -55
42 -175 139 -233 189 -38 34 -86 75 -105 91 -88 75 -375 371 -461 475 -128
155 -173 215 -261 350 -219 334 -361 687 -413 1020 -3 19 -9 59 -14 89 -13 83
-10 277 5 366 80 456 374 761 855 884 127 33 177 42 329 59 127 14 577 6 676
-12 10 -2 51 -7 89 -12 39 -4 72 -8 75 -9 3 0 32 -5 65 -10 33 -5 62 -9 65
-10 3 0 28 -5 55 -10 28 -5 52 -9 55 -10 4 -1 47 -9 115 -21 124 -22 585 -134
805 -195 344 -96 794 -236 1075 -334 47 -17 -115 75 -290 164 -638 324 -1302
563 -1970 710 -49 11 -110 23 -135 26 -24 4 -47 8 -50 10 -6 3 -17 5 -245 40
-86 13 -193 26 -260 31 -38 2 -86 7 -105 10 -36 6 -576 14 -582 9z"/>
<path d="M8355 3840 c-19 -8 -19 -9 3 -9 12 -1 22 4 22 9 0 6 -1 10 -2 9 -2 0
-12 -4 -23 -9z"/>
</g>
</svg>
